<svg width="154" height="47" viewBox="0 0 154 47" fill="none" xmlns="http://www.w3.org/2000/svg">
<g clip-path="url(#clip0_44:10)">
<path fill-rule="evenodd" clip-rule="evenodd" d="M95.4826 36.0465C86.588 42.6005 73.6503 46.0923 62.4916 46.0923C46.8586 46.0923 32.8429 40.3442 22.1693 30.7819C21.3607 30.0298 22.0615 29.0091 23.0857 29.6001C34.5679 36.2614 48.7454 40.2368 63.408 40.2368C73.273 40.2368 84.1622 38.1954 94.1888 33.9514C95.6982 33.3605 96.9381 34.9721 95.4826 36.0465Z" fill="#696984"/>
<path fill-rule="evenodd" clip-rule="evenodd" d="M99.2021 31.8026C98.0701 30.3521 91.6552 31.1042 88.7981 31.4802C87.9356 31.5877 87.7739 30.8356 88.5825 30.2984C93.7037 26.6991 102.059 27.7735 103.03 28.9554C104 30.1372 102.76 38.5176 97.9623 42.493C97.2076 43.0839 96.5068 42.7616 96.8302 41.9558C97.9084 39.2697 100.334 33.3067 99.2021 31.8026Z" fill="#696984"/>
<path fill-rule="evenodd" clip-rule="evenodd" d="M88.9599 5.04974V1.5579C88.9599 1.02069 89.3372 0.698362 89.8224 0.698362H105.455C105.941 0.698362 106.372 1.07441 106.372 1.5579V4.51253C106.372 4.99602 105.941 5.64067 105.186 6.71508L97.0998 18.2113C100.119 18.1576 103.299 18.5873 105.994 20.0915C106.587 20.4138 106.749 20.951 106.803 21.4345V25.1413C106.803 25.6785 106.264 26.2694 105.671 25.9471C100.873 23.4222 94.4584 23.1536 89.1755 26.0008C88.6365 26.2694 88.0435 25.7322 88.0435 25.195V21.6494C88.0435 21.1122 88.0435 20.1452 88.6365 19.2857L98.0163 5.90927H89.8763C89.3912 5.90927 88.9599 5.53322 88.9599 5.04974ZM31.9804 26.6991H27.2366C26.8053 26.6454 26.428 26.3231 26.3741 25.8933V1.61162C26.3741 1.12813 26.8053 0.752086 27.2905 0.752086H31.7108C32.196 0.752086 32.5195 1.12813 32.5734 1.5579V4.72741H32.6812C33.8132 1.66533 36.0234 0.214879 38.9344 0.214879C41.8992 0.214879 43.786 1.66533 45.0797 4.72741C46.2118 1.66533 48.8532 0.214879 51.6564 0.214879C53.6509 0.214879 55.8072 1.02069 57.1549 2.90091C58.6643 4.9423 58.3408 7.89694 58.3408 10.5292V25.8933C58.3408 26.3768 57.9096 26.7529 57.4244 26.7529H52.7345C52.2494 26.6992 51.872 26.3231 51.872 25.8933V13.0004C51.872 11.9797 51.9798 9.4011 51.7642 8.43413C51.3868 6.82251 50.3626 6.33903 48.961 6.33903C47.829 6.33903 46.5891 7.09112 46.104 8.3267C45.6188 9.56227 45.6727 11.6036 45.6727 13.0004V25.8933C45.6727 26.3768 45.2415 26.7529 44.7563 26.7529H40.0125C39.5273 26.6992 39.15 26.3231 39.15 25.8933V13.0004C39.15 10.3144 39.5812 6.28531 36.239 6.28531C32.8429 6.28531 32.9507 10.1532 32.9507 13.0004V25.8933C32.8968 26.3231 32.5195 26.6991 31.9804 26.6991ZM119.849 0.214879C126.91 0.214879 130.738 6.23159 130.738 13.9136C130.738 21.3271 126.533 27.2364 119.849 27.2364C112.948 27.2364 109.175 21.2197 109.175 13.6988C109.121 6.12415 112.948 0.214879 119.849 0.214879ZM119.849 5.21089C116.345 5.21089 116.129 9.99204 116.129 12.9467C116.129 15.9013 116.075 22.2403 119.795 22.2403C123.46 22.2403 123.676 17.1369 123.676 14.0211C123.676 11.9797 123.568 9.50856 122.975 7.57461C122.436 5.85555 121.358 5.21089 119.849 5.21089ZM139.848 26.6991H135.104C134.619 26.6454 134.242 26.2694 134.242 25.8396V1.50417C134.296 1.07441 134.673 0.698362 135.158 0.698362H139.578C140.01 0.698362 140.333 1.0207 140.441 1.39674V5.10346H140.549C141.896 1.77278 143.729 0.214879 147.018 0.214879C149.12 0.214879 151.222 0.966962 152.57 3.06207C153.81 4.99601 153.81 8.27297 153.81 10.6367V25.9471C153.756 26.3768 153.379 26.6991 152.893 26.6991H148.15C147.718 26.6454 147.341 26.3231 147.287 25.9471V12.7318C147.287 10.0457 147.611 6.17787 144.322 6.17787C143.19 6.17787 142.112 6.92997 141.573 8.11182C140.926 9.616 140.818 11.0664 140.818 12.7318V25.8396C140.764 26.3231 140.333 26.6991 139.848 26.6991ZM76.5074 15.0955C76.5074 16.922 76.5613 18.4799 75.6449 20.1452C74.8902 21.4883 73.7043 22.2941 72.3566 22.2941C70.5238 22.2941 69.4456 20.8973 69.4456 18.8559C69.4456 14.8269 73.0574 14.0748 76.5074 14.0748V15.0955ZM81.3051 26.6454C80.9817 26.914 80.5504 26.9678 80.1731 26.7529C78.6098 25.4636 78.2863 24.8189 77.4238 23.5834C74.8363 26.2157 72.9496 27.0215 69.6073 27.0215C65.6182 27.0215 62.4916 24.5503 62.4916 19.6618C62.4916 15.7939 64.594 13.2153 67.5589 11.926C70.1464 10.7978 73.7582 10.583 76.5074 10.2606V9.66972C76.5074 8.54158 76.6152 7.19857 75.9144 6.2316C75.3215 5.37207 74.2433 4.99601 73.273 4.99601C71.4402 4.99601 69.823 5.90927 69.4456 7.84322C69.3378 8.27298 69.0683 8.70273 68.637 8.70273L64.0549 8.21925C63.6776 8.11181 63.2463 7.84321 63.3542 7.25229C64.4323 1.66534 69.4456 0 73.9738 0C76.2918 0 79.3106 0.590924 81.1434 2.3637C83.4614 4.51253 83.2458 7.41345 83.2458 10.5292V17.889C83.2458 20.0915 84.1622 21.0585 85.0247 22.2941C85.3481 22.7238 85.402 23.261 85.0247 23.5296C84.0005 24.3354 82.2755 25.8396 81.3051 26.6454ZM14.245 15.0955C14.245 16.922 14.2989 18.4799 13.3825 20.1452C12.6278 21.4883 11.4419 22.2941 10.0942 22.2941C8.26137 22.2941 7.18324 20.8973 7.18324 18.8559C7.18324 14.8269 10.795 14.0748 14.245 14.0748V15.0955ZM18.9888 26.6454C18.6654 26.914 18.2341 26.9678 17.8568 26.7529C16.2935 25.4636 15.9701 24.8189 15.1075 23.5834C12.52 26.2157 10.6333 27.0215 7.29105 27.0215C3.30195 27.0215 0.175354 24.5503 0.175354 19.6618C0.175354 15.7939 2.27772 13.2153 5.24259 11.926C7.83012 10.7978 11.4419 10.583 14.1911 10.2606V9.66972C14.1911 8.54158 14.2989 7.19857 13.5982 6.2316C13.0052 5.37207 11.927 4.99601 10.9567 4.99601C9.12389 4.99601 7.50668 5.90927 7.12933 7.84322C7.02152 8.27298 6.75198 8.70273 6.32073 8.70273L1.73865 8.21925C1.3613 8.11181 0.930053 7.84321 1.03787 7.25229C2.116 1.66534 7.12934 0 11.6575 0C13.9755 0 16.9943 0.590924 18.8271 2.3637C21.1451 4.51253 20.9295 7.41345 20.9295 10.5292V17.889C20.9295 20.0915 21.8459 21.0585 22.7084 22.2941C23.0319 22.7238 23.0858 23.261 22.7084 23.5296C21.6842 24.3354 19.9592 25.8396 18.9888 26.6454Z" fill="#696984"/>
</g>
<defs>
<clipPath id="clip0_44:10">
<rect width="153.641" height="46.0923" fill="white" transform="translate(153.813 46.0923) rotate(-180)"/>
</clipPath>
</defs>
</svg>
