<svg width="180" height="181" viewBox="0 0 180 181" fill="none" xmlns="http://www.w3.org/2000/svg">
<g filter="url(#filter0_d_142:2)">
<circle cx="90" cy="80.6985" r="50" fill="#5B72EE"/>
</g>
<g clip-path="url(#clip0_142:2)">
<path d="M98.75 80.6985H82.25V86.4485H98.75V80.6985ZM106.398 67.1321L97.9852 58.3274C97.5984 57.9231 97.0742 57.6985 96.5242 57.6985H96V69.1985H107V68.6504C107 68.0844 106.785 67.5364 106.398 67.1321ZM93.25 69.9172V57.6985H76.0625C74.9195 57.6985 74 58.6598 74 59.8547V101.542C74 102.737 74.9195 103.698 76.0625 103.698H104.938C106.08 103.698 107 102.737 107 101.542V72.0735H95.3125C94.1781 72.0735 93.25 71.1032 93.25 69.9172ZM79.5 64.1672C79.5 63.7701 79.8077 63.4485 80.1875 63.4485H87.0625C87.4423 63.4485 87.75 63.7701 87.75 64.1672V65.6047C87.75 66.0018 87.4423 66.3235 87.0625 66.3235H80.1875C79.8077 66.3235 79.5 66.0018 79.5 65.6047V64.1672ZM79.5 69.9172C79.5 69.5201 79.8077 69.1985 80.1875 69.1985H87.0625C87.4423 69.1985 87.75 69.5201 87.75 69.9172V71.3547C87.75 71.7518 87.4423 72.0735 87.0625 72.0735H80.1875C79.8077 72.0735 79.5 71.7518 79.5 71.3547V69.9172ZM101.5 97.2297C101.5 97.6268 101.192 97.9485 100.812 97.9485H93.9375C93.5577 97.9485 93.25 97.6268 93.25 97.2297V95.7922C93.25 95.3951 93.5577 95.0735 93.9375 95.0735H100.812C101.192 95.0735 101.5 95.3951 101.5 95.7922V97.2297ZM101.5 79.261V87.886C101.5 88.6802 100.885 89.3235 100.125 89.3235H80.875C80.1153 89.3235 79.5 88.6802 79.5 87.886V79.261C79.5 78.4668 80.1153 77.8235 80.875 77.8235H100.125C100.885 77.8235 101.5 78.4668 101.5 79.261Z" fill="white"/>
</g>
<defs>
<filter id="filter0_d_142:2" x="0" y="0.698486" width="180" height="180" filterUnits="userSpaceOnUse" color-interpolation-filters="sRGB">
<feFlood flood-opacity="0" result="BackgroundImageFix"/>
<feColorMatrix in="SourceAlpha" type="matrix" values="0 0 0 0 0 0 0 0 0 0 0 0 0 0 0 0 0 0 127 0" result="hardAlpha"/>
<feOffset dy="10"/>
<feGaussianBlur stdDeviation="20"/>
<feColorMatrix type="matrix" values="0 0 0 0 0.212 0 0 0 0 0.238778 0 0 0 0 0.533333 0 0 0 0.06 0"/>
<feBlend mode="normal" in2="BackgroundImageFix" result="effect1_dropShadow_142:2"/>
<feBlend mode="normal" in="SourceGraphic" in2="effect1_dropShadow_142:2" result="shape"/>
</filter>
<clipPath id="clip0_142:2">
<rect width="33" height="46" fill="white" transform="translate(74 57.6985)"/>
</clipPath>
</defs>
</svg>
