<svg width="180" height="181" viewBox="0 0 180 181" fill="none" xmlns="http://www.w3.org/2000/svg">
<g filter="url(#filter0_d_142:4)">
<circle cx="90" cy="80.6985" r="50" fill="#29B9E7"/>
</g>
<path d="M71.25 77.9485C74.2836 77.9485 76.75 75.4821 76.75 72.4485C76.75 69.4149 74.2836 66.9485 71.25 66.9485C68.2164 66.9485 65.75 69.4149 65.75 72.4485C65.75 75.4821 68.2164 77.9485 71.25 77.9485ZM109.75 77.9485C112.784 77.9485 115.25 75.4821 115.25 72.4485C115.25 69.4149 112.784 66.9485 109.75 66.9485C106.716 66.9485 104.25 69.4149 104.25 72.4485C104.25 75.4821 106.716 77.9485 109.75 77.9485ZM112.5 80.6985H107C105.487 80.6985 104.121 81.3086 103.124 82.2969C106.587 84.1961 109.045 87.625 109.578 91.6985H115.25C116.771 91.6985 118 90.4696 118 88.9485V86.1985C118 83.1649 115.534 80.6985 112.5 80.6985ZM90.5 80.6985C95.8195 80.6985 100.125 76.393 100.125 71.0735C100.125 65.754 95.8195 61.4485 90.5 61.4485C85.1805 61.4485 80.875 65.754 80.875 71.0735C80.875 76.393 85.1805 80.6985 90.5 80.6985ZM97.1 83.4485H96.3867C94.5992 84.3079 92.6141 84.8235 90.5 84.8235C88.3859 84.8235 86.4094 84.3079 84.6133 83.4485H83.9C78.4344 83.4485 74 87.8829 74 93.3485V95.8235C74 98.1008 75.8477 99.9485 78.125 99.9485H102.875C105.152 99.9485 107 98.1008 107 95.8235V93.3485C107 87.8829 102.566 83.4485 97.1 83.4485ZM77.8758 82.2969C76.8789 81.3086 75.5125 80.6985 74 80.6985H68.5C65.4664 80.6985 63 83.1649 63 86.1985V88.9485C63 90.4696 64.2289 91.6985 65.75 91.6985H71.4133C71.9547 87.625 74.4125 84.1961 77.8758 82.2969Z" fill="white"/>
<defs>
<filter id="filter0_d_142:4" x="0" y="0.698486" width="180" height="180" filterUnits="userSpaceOnUse" color-interpolation-filters="sRGB">
<feFlood flood-opacity="0" result="BackgroundImageFix"/>
<feColorMatrix in="SourceAlpha" type="matrix" values="0 0 0 0 0 0 0 0 0 0 0 0 0 0 0 0 0 0 127 0" result="hardAlpha"/>
<feOffset dy="10"/>
<feGaussianBlur stdDeviation="20"/>
<feColorMatrix type="matrix" values="0 0 0 0 0.212 0 0 0 0 0.238778 0 0 0 0 0.533333 0 0 0 0.06 0"/>
<feBlend mode="normal" in2="BackgroundImageFix" result="effect1_dropShadow_142:4"/>
<feBlend mode="normal" in="SourceGraphic" in2="effect1_dropShadow_142:4" result="shape"/>
</filter>
</defs>
</svg>
