<svg width="194" height="39" viewBox="0 0 194 39" fill="none" xmlns="http://www.w3.org/2000/svg">
<path d="M100.101 18.6554C98.5045 18.6554 97.3536 19.1809 96.1865 19.7162V31.8298C97.3044 31.9367 97.9452 31.9367 99.0057 31.9367C102.838 31.9367 103.363 30.1753 103.363 27.7159V21.9304C103.363 20.1141 102.763 18.6554 100.101 18.6554ZM74.6492 17.9943C71.9902 17.9943 71.3834 19.4593 71.3834 21.2738V22.2933H77.9115V21.2738C77.9115 19.4593 77.3047 17.9943 74.6492 17.9943ZM25.3437 30.6028C25.3437 32.0382 26.0186 32.7837 27.5078 32.7837C29.1054 32.7837 30.0514 32.261 31.2176 31.7238V28.8504H27.7244C26.0705 28.8504 25.3437 29.1594 25.3437 30.6028ZM124.86 18.6554C122.196 18.6554 121.273 20.1141 121.273 21.9304V28.5584C121.273 30.3792 122.196 31.8424 124.86 31.8424C127.516 31.8424 128.446 30.3792 128.446 28.5584V21.9304C128.445 20.1141 127.515 18.6554 124.86 18.6554ZM12.2911 38.0348H4.4616V19.0156H0.549561V12.4621H4.4625V8.52603C4.4625 3.17885 6.67046 0 12.9462 0H18.1712V6.55531H14.9053C12.462 6.55531 12.3009 7.47151 12.3009 9.18084L12.2911 12.4612H18.207L17.5152 19.0147H12.2911V38.0348ZM39.0488 38.0842H32.5234L32.2415 36.4279C29.262 38.0842 26.603 38.3528 24.8488 38.3528C20.0632 38.3528 17.5161 35.1443 17.5161 30.707C17.5161 25.4721 20.4884 23.6038 25.8055 23.6038H31.2176V22.472C31.2176 19.7998 30.9124 19.0156 26.8178 19.0156H20.1232L20.7774 12.4621H28.095C37.079 12.4621 39.0488 15.3104 39.0488 22.525V38.0842ZM61.2386 19.4962C57.178 18.7973 56.0118 18.6437 54.058 18.6437C50.5487 18.6437 49.4881 19.4207 49.4881 22.4118V28.0698C49.4881 31.0609 50.5487 31.8415 54.058 31.8415C56.0118 31.8415 57.178 31.6852 61.2386 30.9837V37.3764C57.6818 38.1767 55.3647 38.3869 53.4064 38.3869C45.0006 38.3869 41.6596 33.9505 41.6596 27.5416V22.9508C41.6596 16.5365 45.0006 12.092 53.4064 12.092C55.3647 12.092 57.6818 12.3031 61.2386 13.107V19.4962ZM85.7401 27.5416H71.3825V28.0698C71.3825 31.0609 72.444 31.8415 75.9524 31.8415C79.1063 31.8415 81.0315 31.6852 85.0849 30.9837V37.3764C81.1756 38.1767 79.1385 38.3869 75.3035 38.3869C66.8968 38.3869 63.5539 33.9505 63.5539 27.5416V22.2924C63.5539 16.6847 66.034 12.092 74.6483 12.092C83.2627 12.092 85.7401 16.6317 85.7401 22.2924V27.5416ZM111.191 27.6629C111.191 33.8571 109.427 38.3752 98.7408 38.3752C94.8816 38.3752 92.6181 38.0348 88.3588 37.3773V1.96893L96.1856 0.658407V13.0441C97.8771 12.4136 100.066 12.0929 102.059 12.0929C109.886 12.0929 111.19 15.6149 111.19 21.2747V27.6629H111.191ZM136.281 27.7976C136.281 33.1412 134.083 38.324 124.886 38.324C115.684 38.324 113.445 33.1412 113.445 27.7976V22.6382C113.445 17.2919 115.684 12.1082 124.886 12.1082C134.083 12.1082 136.281 17.2919 136.281 22.6382V27.7976ZM161.353 27.7976C161.353 33.1412 159.152 38.324 149.957 38.324C140.756 38.324 138.516 33.1412 138.516 27.7976V22.6382C138.516 17.2919 140.756 12.1082 149.957 12.1082C159.152 12.1082 161.353 17.2919 161.353 22.6382V27.7976ZM187.084 38.0348H178.6L171.425 26.0137V38.0348H163.595V1.96803L171.425 0.657507V23.8759L178.6 12.4621H187.084L179.25 24.9179L187.084 38.0348ZM149.93 18.6554C147.271 18.6554 146.349 20.1141 146.349 21.9304V28.5584C146.349 30.3792 147.271 31.8424 149.93 31.8424C152.586 31.8424 153.526 30.3792 153.526 28.5584V21.9304C153.526 20.1141 152.586 18.6554 149.93 18.6554ZM191.552 33.549C192.871 33.549 193.92 34.6278 193.92 35.9751C193.92 37.3432 192.87 38.4103 191.542 38.4103C190.221 38.4103 189.15 37.3432 189.15 35.9751C189.15 34.6278 190.221 33.549 191.542 33.549H191.552ZM191.542 33.9263C190.48 33.9263 189.611 34.8434 189.611 35.9751C189.611 37.1276 190.481 38.033 191.552 38.033C192.624 38.0438 193.481 37.1276 193.481 35.9859C193.481 34.8443 192.624 33.9263 191.552 33.9263H191.542ZM191.092 37.3872H190.663V34.6799C190.888 34.6485 191.103 34.617 191.425 34.617C191.833 34.617 192.1 34.7033 192.264 34.8209C192.422 34.9404 192.507 35.1227 192.507 35.3805C192.507 35.738 192.273 35.9527 191.984 36.0398V36.0605C192.219 36.1045 192.379 36.3183 192.434 36.7162C192.496 37.1375 192.562 37.2982 192.604 37.3863H192.154C192.09 37.2982 192.025 37.0512 191.971 36.6946C191.908 36.3506 191.735 36.2213 191.391 36.2213H191.093V37.3872H191.092ZM191.092 35.8889H191.404C191.756 35.8889 192.056 35.7587 192.056 35.4236C192.056 35.1865 191.886 34.9503 191.404 34.9503C191.263 34.9503 191.166 34.961 191.092 34.9709V35.8889Z" fill="#696984"/>
</svg>
