<svg width="131" height="52" viewBox="0 0 131 52" fill="none" xmlns="http://www.w3.org/2000/svg">
<path d="M103.804 16.8329V0.93103H107.049V14.6006C106.15 15.0521 104.927 15.9048 103.804 16.8329ZM98.1632 21.6235C99.1615 20.4196 100.185 19.2156 101.408 18.1873V0.93103H98.1632V21.6235ZM60.5751 34.2647C60.5751 38.5035 62.2474 42.5417 65.3173 45.6267C68.3623 48.6867 72.3807 50.3923 76.6237 50.3923C78.4207 50.3923 80.2677 50.016 81.5655 49.3639V46.1033C80.0431 46.7554 78.1961 47.1316 76.6237 47.1316C69.6851 47.1316 63.8448 41.2625 63.8448 34.2898V31.3552C63.8448 24.3825 69.7101 18.5133 76.6237 18.5133C80.068 18.5133 83.2877 19.8427 85.6838 22.2505C88.0798 24.6584 89.4026 27.8939 89.4026 31.3552V50.4173H92.6473V30.7282C92.4476 26.5646 90.6755 22.6769 87.6805 19.7674C84.6604 16.8579 80.7419 15.2527 76.6237 15.2527C72.4056 15.2527 68.3873 16.9332 65.3173 20.0182C62.2724 23.0782 60.5751 27.1164 60.5751 31.3803V34.2647ZM109.145 26.4392C110.618 24.9594 112.515 24.1317 114.386 24.1317C118.405 24.1317 121.525 27.292 121.525 31.305V34.2396C121.525 38.2778 118.38 41.413 114.386 41.413C112.44 41.413 110.568 40.3345 109.095 38.4032C107.797 36.6976 106.949 34.365 106.824 32.2832L104.203 35.5439C104.727 38.0019 106 40.3846 107.822 42.04C109.694 43.7456 112.04 44.6987 114.386 44.6987C120.127 44.6987 124.794 40.0084 124.794 34.2647V31.3301C124.794 28.5962 123.696 25.9877 121.699 24.0062C119.703 21.9997 117.107 20.8961 114.386 20.8961C112.664 20.8961 109.944 21.5232 106.699 24.4577C105.826 25.3356 103.779 27.3923 102.531 28.847C100.434 31.1546 97.4144 34.5908 94.8187 38.0771V43.1687C97.689 39.4566 99.3363 37.3748 102.057 34.2396C104.453 31.3803 107.448 27.9441 109.145 26.4392ZM32.4715 20.2941V16.4316C29.5263 14.8514 26.3316 14.1491 22.0886 14.1491C17.7457 14.1491 13.6275 15.7543 10.5077 18.6388C7.36286 21.5482 5.6407 25.3607 5.6407 29.4239V30.4773C5.6407 38.9048 12.3546 45.7521 20.641 45.7521C27.3549 45.7521 30.1253 43.5449 30.8242 42.8427V33.0357H19.8423V36.2963H27.7792V41.2123H27.7542C26.7309 41.6136 24.6094 42.4664 20.641 42.4664C17.4962 42.4664 14.5261 41.2374 12.3297 38.9801C10.1083 36.7227 8.91031 33.7129 8.91031 30.4523V29.3988C8.91031 22.9027 14.9504 17.3847 22.1135 17.3847C27.0304 17.4097 29.9756 18.2374 32.4715 20.2941ZM56.1325 24.1317C57.3555 24.1317 58.4037 24.3323 59.2523 24.7336C59.6517 23.7304 60.076 22.8776 60.675 21.8743C59.8014 21.2473 57.6799 20.8459 56.1325 20.8459C50.2172 20.8459 45.7496 25.3356 45.7496 31.305V50.3672H48.9942V31.305C48.9942 27.0913 51.9144 24.1317 56.1325 24.1317ZM0 29.4239V30.4773C0 36.1458 2.14646 41.413 6.01508 45.3508C9.88371 49.2636 15.0751 51.4206 20.616 51.4206C25.0837 51.4206 29.0272 50.4173 32.3716 48.4108C35.1171 46.7554 36.3401 45.1 36.4399 44.9495V27.3923H19.8423V30.6529H33.1953V43.9713C31.6229 45.5515 27.904 48.1851 20.641 48.1851C15.8988 48.1851 11.506 46.3541 8.26138 43.0433C5.04169 39.7576 3.26961 35.293 3.26961 30.5024V29.449C3.26961 24.9092 5.29128 20.3945 8.83544 17.0586C12.4545 13.6475 17.1717 11.7664 22.1135 11.7664C26.7309 11.7664 29.9257 12.4686 32.4964 14.0488V10.3618C29.8009 9.20801 26.5812 8.70638 22.0886 8.70638C10.1083 8.70638 0 18.1873 0 29.4239ZM86.9816 50.3672V31.305C86.9816 25.4359 82.4141 20.8459 76.5738 20.8459C73.8533 20.8459 71.2575 21.9495 69.2608 23.9561C67.2641 25.9626 66.1659 28.5711 66.1659 31.28V34.2145C66.1659 39.883 70.9331 44.6485 76.5488 44.6485C78.0963 44.6485 80.1928 44.2723 81.4907 43.1938V39.8078C80.2178 40.8361 78.3958 41.4381 76.5488 41.4381C72.5554 41.4381 69.4106 38.2778 69.4106 34.2647V31.3301C69.4106 27.292 72.5554 24.1567 76.5488 24.1567C80.5672 24.1567 83.687 27.317 83.687 31.3301V50.3923H86.9816V50.3672ZM56.1325 18.4632C58.3288 18.4632 60.2507 18.9397 61.9728 19.9179C62.7715 18.8896 63.5952 18.087 64.2191 17.4599C62.3971 16.0553 59.3022 15.2026 56.1574 15.2026C51.6399 15.2026 47.5466 16.8329 44.6264 19.8176C41.7312 22.7522 40.1338 26.8405 40.1338 31.3301V50.3923H43.3785V31.3301C43.3535 23.7554 48.5949 18.4632 56.1325 18.4632ZM125.693 19.9681C122.648 16.9081 118.629 15.2026 114.386 15.2026C111.292 15.2026 108.197 16.3563 106.474 17.5101C102.93 19.8678 100.035 22.4512 94.7937 29.2483V34.1393C99.2364 28.3203 103.43 23.7554 106.624 21.2222C108.721 19.5417 111.691 18.4883 114.386 18.4883C121.325 18.4883 127.165 24.3825 127.165 31.3301V34.2647C127.165 37.7009 125.818 40.9364 123.372 43.3694C120.951 45.7772 117.756 47.1066 114.386 47.1066C108.696 47.1066 103.679 43.1687 102.331 37.8263L100.035 40.6104C101.707 46.2287 107.747 50.3672 114.386 50.3672C118.629 50.3672 122.623 48.6616 125.693 45.6016C128.738 42.5166 130.435 38.5035 130.435 34.2396V31.305C130.435 27.0662 128.738 23.0281 125.693 19.9681Z" fill="#696984"/>
</svg>
