<svg width="152" height="41" viewBox="0 0 152 41" fill="none" xmlns="http://www.w3.org/2000/svg">
<g clip-path="url(#clip0_44:3)">
<path d="M143.28 19.383L151.376 40.6759C148.99 40.3374 146.606 39.9134 144.178 39.5314L139.617 27.7662L134.931 38.5602C132.631 38.1782 130.372 38.0509 128.072 37.7543L136.294 19.1299L128.836 0.0407104H135.739L139.914 10.7061L144.389 0.0407104H151.375L143.28 19.383ZM123.386 0.0407104H117.122V36.951C119.168 37.0784 121.297 37.1623 123.386 37.4156V0.0407104ZM111.711 36.5272C106.003 36.1465 100.293 35.8093 94.4559 35.6806V0.040874H100.846V29.6705C104.511 29.7546 108.174 30.0499 111.711 30.2192V36.5272ZM87.6376 14.4757V20.8242H78.9038V35.2579H72.5995V0.0407104H90.4939V6.38927H78.9051V14.4758H87.6389L87.6376 14.4757ZM61.8613 6.38927V35.5965C59.7304 35.5965 57.5586 35.5965 55.4698 35.6806V6.38927H48.8657V0.0407104H68.5063V6.38927H61.8613ZM41.9642 21.1616C39.1528 21.1616 35.8288 21.1616 33.4429 21.2903V30.7284C37.1922 30.4738 40.9415 30.1785 44.733 30.0512V36.1465L27.0527 37.5443V0.0407104H44.7318V6.38927H33.4427V14.9402C35.9146 14.9402 39.7062 14.813 41.9639 14.813V21.1629L41.9642 21.1616ZM6.55676 17.6059V39.786C4.25809 40.0406 2.21159 40.3373 0.0396576 40.6759V0.0407104H6.13274L14.4401 23.1109V0.0407104H20.8316V38.0509C18.5737 38.4329 16.2724 38.5602 13.8442 38.8975L6.55676 17.6059Z" fill="#696984"/>
</g>
<defs>
<clipPath id="clip0_44:3">
<rect width="151.336" height="40.7149" fill="white" transform="translate(0.0396729)"/>
</clipPath>
</defs>
</svg>
