<svg width="180" height="181" viewBox="0 0 180 181" fill="none" xmlns="http://www.w3.org/2000/svg">
<g filter="url(#filter0_d_142:3)">
<circle cx="90" cy="74.6985" r="50" fill="#F48C06"/>
</g>
<g clip-path="url(#clip0_142:3)">
<path d="M78 50.6985C77.0532 50.6985 76.2857 51.466 76.2857 52.4128V55.8413H79.7142V52.4128C79.7142 51.466 78.9467 50.6985 78 50.6985Z" fill="#F5F5FC"/>
<path d="M102 50.6985C101.053 50.6985 100.286 51.466 100.286 52.4128V55.8413H103.714V52.4128C103.714 51.466 102.947 50.6985 102 50.6985Z" fill="#F5F5FC"/>
<path d="M108.857 55.8413H103.714V62.6985C103.714 63.6453 102.947 64.4128 102 64.4128C101.053 64.4128 100.286 63.6453 100.286 62.6985V55.8413H79.7142V62.6985C79.7142 63.6453 78.9467 64.4128 77.9999 64.4128C77.0531 64.4128 76.2856 63.6453 76.2856 62.6985V55.8413H71.1429C68.3025 55.8413 66 58.1438 66 60.9842V93.5556C66 96.3959 68.3025 98.6985 71.1429 98.6985H108.857C111.697 98.6985 114 96.3959 114 93.5556V60.9842C114 58.1438 111.697 55.8413 108.857 55.8413ZM110.571 93.5556C110.571 94.5024 109.804 95.2699 108.857 95.2699H71.1429C70.196 95.2699 69.4285 94.5024 69.4285 93.5556V71.2699H110.571V93.5556Z" fill="#F5F5FC"/>
<path d="M79.7142 74.6984H76.2857C75.3389 74.6984 74.5714 75.4659 74.5714 76.4127C74.5714 77.3595 75.3389 78.127 76.2857 78.127H79.7142C80.661 78.127 81.4285 77.3595 81.4285 76.4127C81.4285 75.4659 80.661 74.6984 79.7142 74.6984Z" fill="#F5F5FC"/>
<path d="M91.7143 74.6984H88.2857C87.3389 74.6984 86.5714 75.4659 86.5714 76.4127C86.5714 77.3595 87.3389 78.127 88.2857 78.127H91.7143C92.6611 78.127 93.4286 77.3595 93.4286 76.4127C93.4286 75.4659 92.6611 74.6984 91.7143 74.6984Z" fill="#F5F5FC"/>
<path d="M103.714 74.6984H100.286C99.3389 74.6984 98.5714 75.4659 98.5714 76.4127C98.5714 77.3595 99.3389 78.127 100.286 78.127H103.714C104.661 78.127 105.429 77.3595 105.429 76.4127C105.429 75.4659 104.661 74.6984 103.714 74.6984Z" fill="#F5F5FC"/>
<path d="M79.7142 81.5555H76.2857C75.3389 81.5555 74.5714 82.3231 74.5714 83.2699C74.5714 84.2167 75.3389 84.9842 76.2857 84.9842H79.7142C80.661 84.9842 81.4285 84.2167 81.4285 83.2699C81.4285 82.3231 80.661 81.5555 79.7142 81.5555Z" fill="#F5F5FC"/>
<path d="M91.7143 81.5555H88.2857C87.3389 81.5555 86.5714 82.3231 86.5714 83.2699C86.5714 84.2167 87.3389 84.9842 88.2857 84.9842H91.7143C92.6611 84.9842 93.4286 84.2167 93.4286 83.2699C93.4286 82.3231 92.6611 81.5555 91.7143 81.5555Z" fill="#F5F5FC"/>
<path d="M103.714 81.5555H100.286C99.3389 81.5555 98.5714 82.3231 98.5714 83.2699C98.5714 84.2167 99.3389 84.9842 100.286 84.9842H103.714C104.661 84.9842 105.429 84.2167 105.429 83.2699C105.428 82.3231 104.661 81.5555 103.714 81.5555Z" fill="#F5F5FC"/>
<path d="M79.7142 88.4127H76.2857C75.3389 88.4127 74.5714 89.1802 74.5714 90.127C74.5714 91.0738 75.3389 91.8413 76.2857 91.8413H79.7142C80.661 91.8413 81.4285 91.0737 81.4285 90.1269C81.4285 89.1801 80.661 88.4127 79.7142 88.4127Z" fill="#F5F5FC"/>
<path d="M91.7143 88.4127H88.2857C87.3389 88.4127 86.5714 89.1802 86.5714 90.127C86.5714 91.0738 87.3389 91.8413 88.2857 91.8413H91.7143C92.6611 91.8413 93.4286 91.0738 93.4286 90.127C93.4286 89.1802 92.6611 88.4127 91.7143 88.4127Z" fill="#F5F5FC"/>
<path d="M103.714 88.4127H100.286C99.3389 88.4127 98.5714 89.1802 98.5714 90.127C98.5714 91.0738 99.3389 91.8413 100.286 91.8413H103.714C104.661 91.8413 105.429 91.0738 105.429 90.127C105.429 89.1802 104.661 88.4127 103.714 88.4127Z" fill="#F5F5FC"/>
</g>
<defs>
<filter id="filter0_d_142:3" x="0" y="0.698486" width="180" height="180" filterUnits="userSpaceOnUse" color-interpolation-filters="sRGB">
<feFlood flood-opacity="0" result="BackgroundImageFix"/>
<feColorMatrix in="SourceAlpha" type="matrix" values="0 0 0 0 0 0 0 0 0 0 0 0 0 0 0 0 0 0 127 0" result="hardAlpha"/>
<feOffset dy="16"/>
<feGaussianBlur stdDeviation="20"/>
<feColorMatrix type="matrix" values="0 0 0 0 0.146118 0 0 0 0 0.172389 0 0 0 0 0.441667 0 0 0 0.1 0"/>
<feBlend mode="normal" in2="BackgroundImageFix" result="effect1_dropShadow_142:3"/>
<feBlend mode="normal" in="SourceGraphic" in2="effect1_dropShadow_142:3" result="shape"/>
</filter>
<clipPath id="clip0_142:3">
<rect width="48" height="48" fill="white" transform="translate(66 50.6985)"/>
</clipPath>
</defs>
</svg>
